# xmcd
#
# Track frame offsets:
#	150
#	19020
#	45537
#	93335
#	122590
#	143962
#	191855
#	205692
#
# Disc length: 3303 seconds
#
# Revision: 1
# Processed by: cddbd v1.5.1PL0 Copyright (c) Steve Scherf et al.
# Submitted via: audiograbber 1.82.02
#
DISCID=690ce508
DTITLE=The Incredible Southern Blues Band - Alive And Well
DYEAR=1991
DGENRE=Blues
TTITLE0=Help Me
TTITLE1=Could't Stand The Weather
TTITLE2=Down In Hollywood
TTITLE3=The Very Thing That Makes You Rich (Makes Me Poor)
TTITLE4=Riding On A Pony
TTITLE5=Melody
TTITLE6=Blues Variation
TTITLE7=Resurreciton Shuffle
EXTD=
EXTT0=
EXTT1=
EXTT2=
EXTT3=
EXTT4=
EXTT5=
EXTT6=
EXTT7=
PLAYORDER=
